<svg width="332" height="336" viewBox="0 0 332 336" fill="none" xmlns="http://www.w3.org/2000/svg">
<g clip-path="url(#clip0_8_2)">
<path d="M168.306 0H51.5577C23.0832 0 0 23.0565 0 51.498V51.7203C0 80.1619 23.0832 103.218 51.5577 103.218H168.306C196.78 103.218 219.863 80.1619 219.863 51.7203V51.498C219.863 23.0565 196.78 0 168.306 0Z" fill="#FAFAFA"/>
<path d="M168.306 232.782H51.5577C23.0832 232.782 0 255.838 0 284.28V284.502C0 312.944 23.0832 336 51.5577 336H168.306C196.78 336 219.863 312.944 219.863 284.502V284.28C219.863 255.838 196.78 232.782 168.306 232.782Z" fill="#FAFAFA"/>
<path d="M280.432 116.391H163.684C135.21 116.391 112.126 139.447 112.126 167.889V168.111C112.126 196.553 135.21 219.609 163.684 219.609H280.432C308.907 219.609 331.99 196.553 331.99 168.111V167.889C331.99 139.447 308.907 116.391 280.432 116.391Z" fill="#FAFAFA"/>
<path d="M280.442 0H280.22C251.745 0 228.662 23.0565 228.662 51.498V51.7203C228.662 80.1619 251.745 103.218 280.22 103.218H280.442C308.917 103.218 332 80.1619 332 51.7203V51.498C332 23.0565 308.917 0 280.442 0Z" fill="#3696FF"/>
<path d="M280.442 232.782H280.22C251.745 232.782 228.662 255.838 228.662 284.28V284.502C228.662 312.944 251.745 336 280.22 336H280.442C308.917 336 332 312.944 332 284.502V284.28C332 255.838 308.917 232.782 280.442 232.782Z" fill="#3696FF"/>
<path d="M51.7802 116.391H51.5577C23.0832 116.391 0 139.447 0 167.889V168.111C0 196.553 23.0832 219.609 51.5577 219.609H51.7802C80.2547 219.609 103.338 196.553 103.338 168.111V167.889C103.338 139.447 80.2547 116.391 51.7802 116.391Z" fill="#3696FF"/>
</g>
<defs>
<clipPath id="clip0_8_2">
<rect width="332" height="336" fill="white"/>
</clipPath>
</defs>
</svg>
